<svg width="188" height="40" viewBox="0 0 188 40" fill="none" xmlns="http://www.w3.org/2000/svg">
<path d="M47.7871 8.81055H52.8115L57.7041 22.9463H57.792L62.7139 8.81055H67.7529V28H63.9004V22.2725L64.2666 13.8057L64.1934 13.791L59.0518 28H56.4736L51.3467 13.835L51.2734 13.8496L51.6396 22.2725V28H47.7871V8.81055ZM83.1484 16.5889V19.5625H75.1943V25.041H84.4961V28H71.3418V8.81055H84.4668V11.7695H75.1943V16.5889H83.1484ZM93.2412 11.7695H90.6924V25.041H93.2412C94.6084 25.041 95.6826 24.582 96.4639 23.6641C97.2549 22.7461 97.6504 21.5254 97.6504 20.002V16.7939C97.6504 15.2803 97.2549 14.0645 96.4639 13.1465C95.6826 12.2285 94.6084 11.7695 93.2412 11.7695ZM93.4316 28H86.8398V8.81055H93.4316C95.8047 8.81055 97.7432 9.55762 99.2471 11.0518C100.761 12.5361 101.518 14.46 101.518 16.8232V20.002C101.518 22.3652 100.761 24.2891 99.2471 25.7734C97.7432 27.2578 95.8047 28 93.4316 28ZM110.937 11.7695H108.388V25.041H110.937C112.304 25.041 113.378 24.582 114.159 23.6641C114.95 22.7461 115.346 21.5254 115.346 20.002V16.7939C115.346 15.2803 114.95 14.0645 114.159 13.1465C113.378 12.2285 112.304 11.7695 110.937 11.7695ZM111.127 28H104.535V8.81055H111.127C113.5 8.81055 115.438 9.55762 116.942 11.0518C118.456 12.5361 119.213 14.46 119.213 16.8232V20.002C119.213 22.3652 118.456 24.2891 116.942 25.7734C115.438 27.2578 113.5 28 111.127 28ZM130.229 28H126.391V21.0566L119.931 8.81055H124.149L128.339 17.6436H128.412L132.602 8.81055H136.82L130.229 21.2471V28ZM153.065 18.1709V25.4072C152.421 26.2471 151.483 26.9404 150.253 27.4873C149.022 28.0342 147.543 28.3076 145.814 28.3076C143.451 28.3076 141.527 27.5801 140.043 26.125C138.568 24.6699 137.831 22.7754 137.831 20.4414V16.4277C137.831 14.0938 138.544 12.1992 139.97 10.7441C141.396 9.28906 143.246 8.56152 145.521 8.56152C147.807 8.56152 149.579 9.11816 150.839 10.2314C152.099 11.3447 152.743 12.8535 152.772 14.7578L152.743 14.8311H149.125C149.037 13.7861 148.7 12.9756 148.114 12.3994C147.528 11.8135 146.669 11.5205 145.536 11.5205C144.403 11.5205 143.476 11.9746 142.753 12.8828C142.03 13.7812 141.669 14.9531 141.669 16.3984V20.4414C141.669 21.916 142.04 23.1025 142.782 24.001C143.534 24.8994 144.545 25.3486 145.814 25.3486C147.426 25.3486 148.559 25.0312 149.213 24.3965V20.8369H145.814V18.1709H153.065ZM167.963 20.1631V16.6768C167.963 15.1533 167.587 13.9229 166.835 12.9854C166.083 12.0381 165.058 11.5645 163.759 11.5645C162.46 11.5645 161.444 12.0332 160.712 12.9707C159.989 13.8984 159.628 15.1338 159.628 16.6768V20.1631C159.628 21.7158 159.994 22.9658 160.727 23.9131C161.469 24.8506 162.484 25.3193 163.773 25.3193C165.072 25.3193 166.093 24.8506 166.835 23.9131C167.587 22.9658 167.963 21.7158 167.963 20.1631ZM171.801 16.7061V20.1631C171.801 22.5459 171.054 24.499 169.56 26.0225C168.075 27.5459 166.142 28.3076 163.759 28.3076C162.196 28.3076 160.81 27.9609 159.599 27.2676C158.388 26.5645 157.45 25.5977 156.786 24.3672C156.122 23.127 155.79 21.7256 155.79 20.1631V16.7061C155.79 14.333 156.527 12.3848 158.002 10.8613C159.477 9.32812 161.396 8.56152 163.759 8.56152C166.132 8.56152 168.065 9.32812 169.56 10.8613C171.054 12.3848 171.801 14.333 171.801 16.7061ZM178.671 8.81055V25.041H187.211V28H174.818V8.81055H178.671Z" fill="url(#paint0_linear_683_10663)"/>
<path d="M29.8391 6.74039C24.4755 2.11486 19.9999 7.70663 19.9999 7.70663C19.9999 7.70663 15.5242 2.11486 10.1606 6.74039C4.79706 11.3659 9.66467 19.643 19.9999 25.3473C30.827 18.9329 35.2026 11.3698 29.8391 6.74039Z" fill="#07CBEB"/>
<g style="mix-blend-mode:multiply" opacity="0.5">
<path d="M20.0006 23.3101C13.1331 19.5189 8.68547 14.5946 8.04152 10.361C7.27758 14.9749 11.9972 20.9275 20.0006 25.3435C28.2959 20.4269 32.7995 14.839 32.0396 10.4114C31.3877 14.4432 27.068 19.1192 20.0006 23.3062V23.3101Z" fill="#919191"/>
</g>
<path d="M18.1559 32.6387C17.524 32.2157 2.69316 22.2157 0.46534 14.0939C-0.590575 10.2406 0.169364 6.58129 2.55317 4.05122C4.88899 1.57159 8.5087 0.461771 12.2364 1.08265L12.0164 2.3244C8.72468 1.77725 5.54494 2.73961 3.5091 4.90492C1.40127 7.14396 0.765317 10.291 1.72124 13.7718C3.82507 21.4435 18.7439 31.5017 18.8919 31.6026L18.1559 32.6387Z" fill="#07CBEB"/>
<g style="mix-blend-mode:multiply" opacity="0.5">
<path d="M1.72151 13.7719C0.765583 10.2911 1.40153 7.14011 3.50936 4.90495C5.5452 2.74353 8.72495 1.78117 12.0167 2.32443L12.1527 1.55222C8.66895 1.03223 5.30522 2.09161 3.12139 4.41213C0.849576 6.82191 0.125634 10.3105 1.13355 13.9814C3.25338 21.723 17.3923 31.2534 17.9962 31.657L18.3202 31.203C15.5524 29.2666 3.59336 20.5821 1.72551 13.768L1.72151 13.7719Z" fill="#919191"/>
</g>
<path d="M21.8438 32.6387C22.4757 32.2157 37.3065 22.2157 39.5343 14.0939C40.5903 10.2406 39.8303 6.58129 37.4505 4.05122C35.1147 1.57159 31.495 0.461771 27.7673 1.08265L27.9873 2.3244C31.279 1.77725 34.4588 2.73961 36.4946 4.90492C38.6024 7.14396 39.2384 10.291 38.2824 13.7718C36.1786 21.4435 21.2598 31.5017 21.1118 31.6026L21.8478 32.6387H21.8438Z" fill="#07CBEB"/>
<g style="mix-blend-mode:multiply" opacity="0.5">
<path d="M38.2789 13.7719C39.2348 10.2911 38.5988 7.14011 36.491 4.90495C34.4552 2.74353 31.2754 1.78117 27.9837 2.32443L27.8477 1.55222C31.3314 1.03223 34.6951 2.09161 36.879 4.41213C39.1468 6.82191 39.8747 10.3105 38.8668 13.9814C36.747 21.723 22.6081 31.2534 22.0041 31.657L21.6802 31.203C24.448 29.2666 36.407 20.5821 38.2749 13.768L38.2789 13.7719Z" fill="#919191"/>
</g>
<path d="M31.1995 20.5199C27.9957 23.2479 20.0683 30 20.0003 30.0465C19.9324 30.0038 12.005 23.2518 8.80124 20.5199C8.0213 19.8564 6.87739 19.7788 6.00946 20.3337C4.75756 21.1369 4.61357 22.8638 5.72148 23.8494C8.89323 26.6666 14.6888 31.7578 17.2526 33.6321V37.3341C17.2526 38.8048 18.4845 40 20.0003 40C21.5162 40 22.7481 38.8048 22.7481 37.3341V33.6321C25.3079 31.7578 31.1075 26.6666 34.2792 23.8494C35.3871 22.8676 35.2431 21.1369 33.9912 20.3337C33.1233 19.7788 31.9834 19.8525 31.1995 20.5199Z" fill="#1745B3"/>
<g style="mix-blend-mode:overlay" opacity="0.3">
<path d="M19.9996 33.0927C20.0836 33.0345 29.6989 24.8467 34.4825 20.7722C34.7665 21.102 34.9384 21.4979 34.9984 21.9053C34.9144 21.2922 34.5745 20.714 33.9865 20.3376C33.1186 19.7827 31.9787 19.8564 31.1947 20.5239C27.991 23.2518 20.0636 30.0039 19.9956 30.0504C19.9276 30.0078 12.0003 23.2557 8.79653 20.5239C8.01659 19.8603 6.87268 19.7827 6.00475 20.3376C5.81276 20.4618 5.64878 20.6092 5.50879 20.7722C10.2964 24.8506 19.9076 33.0345 19.9916 33.0927H19.9996Z" fill="#07CBEB"/>
</g>
<g style="mix-blend-mode:multiply" opacity="0.5">
<path d="M17.8762 20.0816V17.1867H14.8965V13.0695H17.8762V10.1747H22.1239V13.0695H25.1037V17.1867H22.1239V20.0816H17.8762Z" fill="#919191"/>
</g>
<path d="M24.6514 13.6128H21.5597V10.6132H18.4399V13.6128H15.3481V16.6395H18.4399V19.643H21.5597V16.6395H24.6514V13.6128Z" fill="white"/>
<path d="M10.7967 0H12.0966C13.0406 0 13.8045 0.741172 13.8045 1.65697C13.8045 2.57276 13.0406 3.31393 12.0966 3.31393H10.7967C9.85281 3.31393 9.08887 2.57276 9.08887 1.65697C9.08887 0.741172 9.85281 0 10.7967 0Z" fill="#1745B3"/>
<g style="mix-blend-mode:overlay" opacity="0.3">
<path d="M12.101 0H10.8011C9.8572 0 9.09326 0.741172 9.09326 1.65697H13.8089C13.8089 0.741172 13.0449 0 12.101 0Z" fill="#07CBEB"/>
</g>
<path d="M27.8993 0H29.1992C30.1431 0 30.907 0.741172 30.907 1.65697C30.907 2.57276 30.1431 3.31393 29.1992 3.31393H27.8993C26.9553 3.31393 26.1914 2.57276 26.1914 1.65697C26.1914 0.741172 26.9553 0 27.8993 0Z" fill="#1745B3"/>
<g style="mix-blend-mode:overlay" opacity="0.3">
<path d="M29.2031 0H27.9032C26.9593 0 26.1953 0.741172 26.1953 1.65697H30.9109C30.9109 0.741172 30.147 0 29.2031 0Z" fill="#07CBEB"/>
</g>
<defs>
<linearGradient id="paint0_linear_683_10663" x1="46" y1="19.5" x2="188" y2="19.5" gradientUnits="userSpaceOnUse">
<stop stop-color="#1745B3"/>
<stop offset="1" stop-color="#07CBEB"/>
</linearGradient>
</defs>
</svg>
